<svg xmlns="http://www.w3.org/2000/svg" xmlns:xlink="http://www.w3.org/1999/xlink" width="112" height="18" viewBox="0 0 112 18">
  <defs>
    <clipPath id="clip-path">
      <path id="Path_1" data-name="Path 1" d="M0,0H10.412V18H0Z" transform="translate(-157.412 511)" fill="none"/>
    </clipPath>
  </defs>
  <g id="_4.5-ratings" data-name="4.5-ratings" transform="translate(259 -511)">
    <g id="_4-ratings" data-name="4-ratings" transform="translate(390.309 562)">
      <path id="star" d="M48.113,27.561l2.166,4.871a1.166,1.166,0,0,0,.944.686l5.3.555L52.56,37.239a1.166,1.166,0,0,0-.36,1.109l1.11,5.214L48.7,40.894a1.166,1.166,0,0,0-1.166,0l-4.616,2.667,1.11-5.214a1.166,1.166,0,0,0-.36-1.109L39.7,33.673l5.3-.555a1.166,1.166,0,0,0,.944-.686Z" transform="translate(-689.009 -77.561)" fill="#f4c01e" fill-rule="evenodd"/>
      <path id="star-2" data-name="star" d="M48.113,27.561l2.166,4.871a1.166,1.166,0,0,0,.944.686l5.3.555L52.56,37.239a1.166,1.166,0,0,0-.36,1.109l1.11,5.214L48.7,40.894a1.166,1.166,0,0,0-1.166,0l-4.616,2.667,1.11-5.214a1.166,1.166,0,0,0-.36-1.109L39.7,33.673l5.3-.555a1.166,1.166,0,0,0,.944-.686Z" transform="translate(-665.64 -77.561)" fill="#f4c01e" fill-rule="evenodd"/>
      <path id="star-3" data-name="star" d="M48.113,27.561l2.166,4.871a1.166,1.166,0,0,0,.944.686l5.3.555L52.56,37.239a1.166,1.166,0,0,0-.36,1.109l1.11,5.214L48.7,40.894a1.166,1.166,0,0,0-1.166,0l-4.616,2.667,1.11-5.214a1.166,1.166,0,0,0-.36-1.109L39.7,33.673l5.3-.555a1.166,1.166,0,0,0,.944-.686Z" transform="translate(-642.273 -77.561)" fill="#f4c01e" fill-rule="evenodd"/>
      <path id="star-4" data-name="star" d="M48.113,27.561l2.166,4.871a1.166,1.166,0,0,0,.944.686l5.3.555L52.56,37.239a1.166,1.166,0,0,0-.36,1.109l1.11,5.214L48.7,40.894a1.166,1.166,0,0,0-1.166,0l-4.616,2.667,1.11-5.214a1.166,1.166,0,0,0-.36-1.109L39.7,33.673l5.3-.555a1.166,1.166,0,0,0,.944-.686Z" transform="translate(-618.905 -77.561)" fill="#f4c01e" fill-rule="evenodd"/>
      <path id="star-5" data-name="star" d="M48.113,27.561l2.166,4.871a1.166,1.166,0,0,0,.944.686l5.3.555L52.56,37.239a1.166,1.166,0,0,0-.36,1.109l1.11,5.214L48.7,40.894a1.166,1.166,0,0,0-1.166,0l-4.616,2.667,1.11-5.214a1.166,1.166,0,0,0-.36-1.109L39.7,33.673l5.3-.555a1.166,1.166,0,0,0,.944-.686Z" transform="translate(-595.832 -77.561)" fill="#f4c01e" fill-rule="evenodd"/>
    </g>
    <g id="Mask_Group_1" data-name="Mask Group 1" clip-path="url(#clip-path)">
      <path id="star-6" data-name="star" d="M48.113,27.561l2.166,4.871a1.166,1.166,0,0,0,.944.686l5.3.555L52.56,37.239a1.166,1.166,0,0,0-.36,1.109l1.11,5.214L48.7,40.894a1.166,1.166,0,0,0-1.166,0l-4.616,2.667,1.11-5.214a1.166,1.166,0,0,0-.36-1.109L39.7,33.673l5.3-.555a1.166,1.166,0,0,0,.944-.686Z" transform="translate(-205.523 484.439)" fill="#909090" fill-rule="evenodd"/>
    </g>
  </g>
</svg>
