<svg xmlns="http://www.w3.org/2000/svg" width="110" height="16.001" viewBox="0 0 110 16.001">
  <g id="_5-ratings" data-name="5-ratings" transform="translate(649.309 50)">
    <path id="star" d="M48.113,27.561l2.166,4.871a1.166,1.166,0,0,0,.944.686l5.3.555L52.56,37.239a1.166,1.166,0,0,0-.36,1.109l1.11,5.214L48.7,40.894a1.166,1.166,0,0,0-1.166,0l-4.616,2.667,1.11-5.214a1.166,1.166,0,0,0-.36-1.109L39.7,33.673l5.3-.555a1.166,1.166,0,0,0,.944-.686Z" transform="translate(-689.009 -77.561)" fill="#f4c01e" fill-rule="evenodd"/>
    <path id="star-2" data-name="star" d="M48.113,27.561l2.166,4.871a1.166,1.166,0,0,0,.944.686l5.3.555L52.56,37.239a1.166,1.166,0,0,0-.36,1.109l1.11,5.214L48.7,40.894a1.166,1.166,0,0,0-1.166,0l-4.616,2.667,1.11-5.214a1.166,1.166,0,0,0-.36-1.109L39.7,33.673l5.3-.555a1.166,1.166,0,0,0,.944-.686Z" transform="translate(-665.714 -77.561)" fill="#f4c01e" fill-rule="evenodd"/>
    <path id="star-3" data-name="star" d="M48.113,27.561l2.166,4.871a1.166,1.166,0,0,0,.944.686l5.3.555L52.56,37.239a1.166,1.166,0,0,0-.36,1.109l1.11,5.214L48.7,40.894a1.166,1.166,0,0,0-1.166,0l-4.616,2.667,1.11-5.214a1.166,1.166,0,0,0-.36-1.109L39.7,33.673l5.3-.555a1.166,1.166,0,0,0,.944-.686Z" transform="translate(-642.42 -77.561)" fill="#f4c01e" fill-rule="evenodd"/>
    <path id="star-4" data-name="star" d="M48.113,27.561l2.166,4.871a1.166,1.166,0,0,0,.944.686l5.3.555L52.56,37.239a1.166,1.166,0,0,0-.36,1.109l1.11,5.214L48.7,40.894a1.166,1.166,0,0,0-1.166,0l-4.616,2.667,1.11-5.214a1.166,1.166,0,0,0-.36-1.109L39.7,33.673l5.3-.555a1.166,1.166,0,0,0,.944-.686Z" transform="translate(-619.126 -77.561)" fill="#f4c01e" fill-rule="evenodd"/>
    <path id="star-5" data-name="star" d="M48.113,27.561l2.166,4.871a1.166,1.166,0,0,0,.944.686l5.3.555L52.56,37.239a1.166,1.166,0,0,0-.36,1.109l1.11,5.214L48.7,40.894a1.166,1.166,0,0,0-1.166,0l-4.616,2.667,1.11-5.214a1.166,1.166,0,0,0-.36-1.109L39.7,33.673l5.3-.555a1.166,1.166,0,0,0,.944-.686Z" transform="translate(-595.832 -77.561)" fill="#f4c01e" fill-rule="evenodd"/>
  </g>
</svg>
