<svg xmlns="http://www.w3.org/2000/svg" width="128" height="16" viewBox="0 0 128 16">
  <g id="blank-star" transform="translate(649.307 50)">
    <path id="star" d="M48.113,27.561l2.166,4.871a1.166,1.166,0,0,0,.944.686l5.3.555-3.963,3.566a1.166,1.166,0,0,0-.36,1.109l1.11,5.214L48.7,40.894a1.166,1.166,0,0,0-1.166,0l-4.616,2.667,1.11-5.214a1.166,1.166,0,0,0-.36-1.109L39.7,33.673l5.3-.555a1.166,1.166,0,0,0,.944-.686Z" transform="translate(-689.009 -77.561)" fill="#909090" fill-rule="evenodd"/>
    <path id="star-2" data-name="star" d="M48.113,27.561l2.166,4.871a1.166,1.166,0,0,0,.944.686l5.3.555-3.963,3.566a1.166,1.166,0,0,0-.36,1.109l1.11,5.214L48.7,40.894a1.166,1.166,0,0,0-1.166,0l-4.616,2.667,1.11-5.214a1.166,1.166,0,0,0-.36-1.109L39.7,33.673l5.3-.555a1.166,1.166,0,0,0,.944-.686Z" transform="translate(-661.214 -77.561)" fill="#909090" fill-rule="evenodd"/>
    <path id="star-3" data-name="star" d="M48.113,27.561l2.166,4.871a1.166,1.166,0,0,0,.944.686l5.3.555-3.963,3.566a1.166,1.166,0,0,0-.36,1.109l1.11,5.214L48.7,40.894a1.166,1.166,0,0,0-1.166,0l-4.616,2.667,1.11-5.214a1.166,1.166,0,0,0-.36-1.109L39.7,33.673l5.3-.555a1.166,1.166,0,0,0,.944-.686Z" transform="translate(-633.42 -77.561)" fill="#909090" fill-rule="evenodd"/>
    <path id="star-4" data-name="star" d="M48.113,27.561l2.166,4.871a1.166,1.166,0,0,0,.944.686l5.3.555-3.963,3.566a1.166,1.166,0,0,0-.36,1.109l1.11,5.214L48.7,40.894a1.166,1.166,0,0,0-1.166,0l-4.616,2.667,1.11-5.214a1.166,1.166,0,0,0-.36-1.109L39.7,33.673l5.3-.555a1.166,1.166,0,0,0,.944-.686Z" transform="translate(-605.626 -77.561)" fill="#909090" fill-rule="evenodd"/>
    <path id="star-5" data-name="star" d="M48.113,27.561l2.166,4.871a1.166,1.166,0,0,0,.944.686l5.3.555-3.963,3.566a1.166,1.166,0,0,0-.36,1.109l1.11,5.214L48.7,40.894a1.166,1.166,0,0,0-1.166,0l-4.616,2.667,1.11-5.214a1.166,1.166,0,0,0-.36-1.109L39.7,33.673l5.3-.555a1.166,1.166,0,0,0,.944-.686Z" transform="translate(-577.832 -77.561)" fill="#909090" fill-rule="evenodd"/>
  </g>
</svg>
