<?xml version="1.0" encoding="UTF-8"?>
<!DOCTYPE svg PUBLIC "-//W3C//DTD SVG 1.1//EN" "http://www.w3.org/Graphics/SVG/1.1/DTD/svg11.dtd">
<!-- Creator: CorelDRAW X7 -->
<svg xmlns="http://www.w3.org/2000/svg" xml:space="preserve" width="150.48mm" height="53.4212mm" version="1.1" style="shape-rendering:geometricPrecision; text-rendering:geometricPrecision; image-rendering:optimizeQuality; fill-rule:evenodd; clip-rule:evenodd"
viewBox="0 0 15016 5331"
 xmlns:xlink="http://www.w3.org/1999/xlink">
 <defs>
  <style type="text/css">
   <![CDATA[
    .str1 {stroke:#B0CB1F;stroke-width:39.387}
    .str0 {stroke:#B0CB1F;stroke-width:39.387}
    .str2 {stroke:#B0CB1F;stroke-width:39.387}
    .str3 {stroke:#B0CB1F;stroke-width:63.3764}
    .fil4 {fill:none;fill-rule:nonzero}
    .fil5 {fill:#FEFEFE}
    .fil0 {fill:#B0CB1F;fill-rule:nonzero}
    .fil6 {fill:#1A1A1A;fill-rule:nonzero}
    .fil1 {fill:url(#id3)}
    .fil2 {fill:url(#id4);fill-rule:nonzero}
    .fil3 {fill:url(#id5);fill-rule:nonzero}
   ]]>
  </style>
    <clipPath id="id0" style="clip-rule:nonzero">
     <path d="M13469 3145l130 -749 -1439 4c185,-115 440,-235 690,-376 449,-252 906,-477 1001,-1023 126,-722 -429,-1002 -1071,-1001 -805,2 -1368,373 -1537,1284l822 -2c48,-299 202,-594 554,-595 184,-1 352,113 317,312 -91,515 -940,728 -1555,1270 -290,256 -478,521 -522,882l2610 -6z"/>
    </clipPath>
    <mask id="id1">
  <linearGradient id="id2" gradientUnits="userSpaceOnUse" x1="12426.3" y1="1894.54" x2="12812.5" y2="2935.84">
   <stop offset="0" style="stop-opacity:1; stop-color:white"/>
   <stop offset="1" style="stop-opacity:0; stop-color:white"/>
  </linearGradient>
     <rect style="fill:url(#id2)" x="11635" y="1678" width="1968" height="1474"/>
    </mask>
  <linearGradient id="id3" gradientUnits="userSpaceOnUse" x1="13611" y1="2317.65" x2="14544.7" y2="1864.34">
   <stop offset="0" style="stop-opacity:1; stop-color:#B0CB1F"/>
   <stop offset="1" style="stop-opacity:1; stop-color:#FEFEFE"/>
  </linearGradient>
  <linearGradient id="id4" gradientUnits="userSpaceOnUse" xlink:href="#id3" x1="11134.8" y1="2519.27" x2="13594" y2="631.29">
  </linearGradient>
  <linearGradient id="id5" gradientUnits="userSpaceOnUse" xlink:href="#id3" x1="14409.7" y1="2040.36" x2="12816.7" y2="360.78">
  </linearGradient>
 </defs>
 <g id="Layer_x0020_1">
  <metadata id="CorelCorpID_0Corel-Layer"/>
  <g id="_1743962113808">
   <path class="fil0" d="M220 5319l107 0c98,-245 156,-396 174,-453l2 0c-4,64 -5,215 -5,453l110 0 270 -581 -116 1c-65,154 -108,257 -129,310 -23,54 -38,92 -45,114l-1 0c1,-31 2,-71 3,-121 -1,-49 -1,-150 -1,-303l-122 0c-56,147 -95,248 -116,304 -20,55 -35,96 -45,121l-1 0c2,-27 3,-66 3,-118 0,-52 -2,-154 -6,-306l-122 0 40 579zm1170 -582l-419 1 -122 580 434 -1 21 -102 -321 0 31 -150 283 -1 21 -102 -282 0 25 -121 308 -1 21 -103zm213 0l-114 0 -122 580 115 0 121 -580zm312 364l135 0c-12,28 -26,51 -42,67 -16,18 -33,31 -50,39 -16,9 -31,14 -44,17 -15,3 -26,4 -34,4 -23,0 -44,-3 -64,-9 -19,-6 -37,-17 -52,-31 -6,-9 -12,-18 -17,-28 -4,-10 -8,-21 -10,-34 -5,-25 -3,-57 5,-97 16,-73 44,-127 84,-160 38,-32 79,-48 122,-48 21,0 39,4 53,11 14,8 25,17 33,28 9,10 14,21 17,31 3,11 3,19 2,25l114 0c3,-21 2,-43 -3,-66 -5,-22 -16,-43 -31,-63 -15,-19 -37,-35 -65,-48 -29,-12 -64,-18 -107,-18 -94,2 -169,33 -225,93 -57,61 -93,132 -110,214 -20,102 -9,178 33,228 41,50 96,75 167,75 27,-1 50,-4 71,-10 20,-6 38,-13 53,-21 16,-10 30,-19 42,-29 11,-9 21,-19 30,-28l0 0 -3 73 80 -1 65 -312 -229 0 -20 98zm679 -47l-54 260 114 0 121 -580 -114 1 -46 219 -222 1 46 -220 -114 0 -122 580 114 0 55 -260 222 -1zm521 -218l174 0 22 -103 -464 1 -22 103 175 -1 -100 478 115 -1 100 -477zm607 -104l-115 0 -121 580 402 -1 22 -104 -288 0 100 -475zm283 289c-14,67 -14,121 0,162 12,41 30,71 56,92 25,20 52,34 80,40 28,7 51,11 70,11 20,0 45,-4 76,-11 31,-7 64,-21 97,-41 34,-21 65,-51 93,-92 29,-41 50,-95 64,-162 14,-68 15,-122 2,-163 -12,-41 -31,-71 -56,-92 -25,-20 -52,-34 -81,-41 -28,-6 -52,-9 -72,-9 -18,1 -43,4 -74,10 -31,7 -63,21 -97,41 -33,20 -64,51 -93,92 -29,41 -51,95 -65,163zm113 0c9,-41 21,-74 37,-101 15,-26 32,-47 51,-62 18,-15 37,-26 56,-32 19,-5 36,-8 52,-8 17,0 34,3 51,8 16,6 31,16 43,32 12,15 21,35 25,61 4,27 2,61 -6,101 -9,40 -20,73 -35,99 -15,27 -32,48 -51,63 -18,15 -37,25 -56,31 -19,7 -37,10 -54,10 -16,0 -32,-3 -49,-10 -16,-5 -31,-16 -43,-31 -12,-15 -21,-36 -25,-62 -5,-26 -4,-59 4,-99zm476 110c-5,18 -6,38 -3,60 1,22 9,43 21,64 13,20 34,36 63,49 29,13 68,20 119,20 13,0 32,-2 57,-5 25,-4 51,-12 78,-25 27,-12 53,-32 76,-57 22,-25 38,-59 47,-102 6,-27 7,-49 2,-67 -4,-18 -12,-32 -24,-43 -11,-12 -24,-22 -40,-28 -16,-7 -34,-13 -53,-18l-129 -34c-12,-3 -24,-8 -35,-16 -12,-8 -16,-23 -12,-45 6,-26 21,-45 44,-55 23,-10 46,-15 69,-15 26,0 46,3 61,9 13,7 23,15 29,25 6,9 9,19 10,28 0,10 -1,18 -1,25l109 0c5,-18 6,-38 3,-59 -2,-22 -10,-42 -23,-61 -12,-20 -31,-36 -57,-48 -26,-12 -60,-18 -102,-19 -45,0 -82,6 -113,18 -31,13 -56,29 -75,47 -19,19 -33,38 -43,59 -10,20 -17,38 -20,55 -6,31 -6,57 0,77 6,20 16,35 30,47 8,5 16,10 24,15 9,5 18,9 27,13 11,3 21,6 32,8 10,3 20,7 30,10l57 15c15,3 28,6 39,10 12,3 22,8 29,13 17,10 23,26 19,48 -3,15 -9,27 -17,37 -9,10 -20,17 -33,23 -26,10 -54,16 -84,15 -26,0 -46,-3 -60,-10 -14,-7 -25,-15 -31,-24 -7,-11 -10,-21 -11,-32 0,-10 0,-19 0,-27l-109 0zm527 -1c-4,18 -5,38 -3,60 2,22 9,43 22,64 12,20 33,36 62,49 29,13 69,20 119,20 13,0 32,-2 57,-5 25,-4 51,-13 78,-25 28,-13 53,-32 76,-57 23,-25 39,-60 48,-103 5,-26 6,-48 2,-66 -4,-18 -13,-32 -25,-44 -10,-11 -24,-21 -40,-28 -16,-6 -33,-12 -52,-17l-130 -34c-12,-3 -23,-8 -35,-17 -12,-7 -16,-22 -12,-44 6,-26 21,-45 45,-55 22,-10 45,-15 69,-15 25,0 45,3 60,9 14,6 23,15 29,25 6,9 9,19 10,28 0,10 0,18 -1,25l110 0c4,-18 5,-38 3,-60 -3,-21 -10,-41 -23,-60 -12,-20 -31,-36 -57,-48 -26,-12 -61,-18 -103,-19 -45,0 -82,6 -112,18 -31,13 -57,28 -76,47 -19,19 -33,38 -43,58 -9,21 -16,39 -20,56 -6,31 -6,57 1,77 5,19 16,35 30,47 7,5 15,10 24,15 8,4 17,9 27,13 10,3 21,6 31,8 10,3 20,7 30,10l58 14c14,4 27,7 39,11 11,3 21,8 29,13 16,10 22,26 18,48 -3,15 -9,27 -17,37 -9,10 -20,17 -32,22 -27,11 -55,16 -85,16 -25,0 -45,-3 -60,-10 -14,-7 -24,-15 -31,-24 -6,-11 -10,-21 -10,-32 -1,-10 -1,-19 0,-27l-110 0zm1123 0l-1 0 -140 -403 -123 0 -122 580 108 0 87 -414 1 0 144 413 116 0 122 -580 -108 0 -84 404zm761 -405l-117 0 -80 382c-13,73 -60,110 -138,111 -28,0 -50,-10 -66,-29 -16,-18 -20,-47 -11,-87l78 -376 -116 0 -81 384c-12,59 -7,105 15,141 11,13 23,24 36,34 13,9 27,17 41,22 31,9 59,13 86,13 150,1 241,-71 274,-218l79 -377zm339 102l175 -1 21 -102 -464 1 -22 102 175 0 -100 477 115 0 100 -477zm147 476l111 0 48 -227 123 0c22,0 39,2 51,6 12,3 20,10 24,19 4,9 6,20 4,34 -1,13 -5,30 -9,51 -6,29 -9,52 -10,70 -3,18 -3,33 -1,47l127 -1 3 -15c-11,-3 -16,-13 -15,-29 0,-17 5,-45 13,-86 6,-27 9,-50 10,-66 0,-17 -1,-30 -6,-41 -3,-10 -9,-18 -17,-24 -8,-6 -18,-12 -29,-16 31,-10 57,-28 78,-52 20,-25 33,-54 40,-86 2,-7 3,-15 4,-23 0,-8 0,-16 0,-25 -1,-18 -6,-36 -15,-53 -8,-19 -22,-34 -43,-45 -22,-12 -51,-18 -88,-18l-282 1 -121 579zm180 -324l32 -155 149 -1c17,0 31,3 42,8 10,4 17,11 21,18 5,7 7,15 8,24 -1,9 -2,18 -3,26 -11,54 -48,80 -109,79l-140 1zm618 -257l-115 0 -121 580 115 0 121 -580zm323 102l174 0 22 -103 -464 1 -22 103 175 -1 -100 477 115 0 100 -477zm373 -103l-114 0 -122 580 115 -1 121 -579zm23 289c-13,67 -13,121 0,162 12,41 31,71 56,92 26,20 53,34 81,40 28,7 51,11 70,11 20,0 45,-4 76,-11 31,-7 63,-21 97,-41 34,-21 65,-51 93,-92 29,-41 50,-95 64,-162 14,-68 14,-122 2,-163 -12,-41 -31,-71 -56,-92 -26,-20 -52,-34 -81,-41 -28,-6 -52,-9 -72,-9 -18,1 -43,4 -74,10 -31,7 -63,21 -97,41 -34,20 -64,51 -93,91 -30,42 -52,96 -66,164zm114 0c9,-41 21,-74 37,-101 15,-26 32,-47 51,-62 18,-15 37,-26 56,-32 19,-5 36,-8 52,-8 17,0 34,3 50,8 17,6 32,16 44,32 12,15 21,35 25,61 4,27 2,61 -6,101 -9,40 -21,73 -35,99 -15,27 -32,48 -51,63 -18,15 -37,25 -56,31 -19,7 -37,10 -54,10 -16,0 -32,-3 -49,-10 -17,-5 -31,-16 -43,-31 -12,-15 -21,-36 -26,-62 -5,-26 -3,-59 5,-99zm847 112l-2 0 -140 -403 -122 0 -122 580 108 0 86 -414 2 0 144 413 116 0 121 -580 -107 0 -84 404z"/>
   <polygon class="fil1" points="13869,1176 13758,1816 13642,2352 13527,3006 14398,3004 14510,2359 14628,1815 "/>
   <path class="fil0" d="M12210 2362l2689 -6 117 -544 -387 1 309 -1774 -854 2 -1748 1724 -126 597zm1713 -1494l-165 947 -739 1 904 -948z"/>
   <path class="fil2" d="M13469 3145l130 -749 -1439 4c185,-115 440,-235 690,-376 449,-252 906,-477 1001,-1023 126,-722 -429,-1002 -1071,-1001 -805,2 -1368,373 -1537,1284l822 -2c48,-299 202,-594 554,-595 184,-1 352,113 317,312 -91,515 -940,728 -1555,1270 -290,256 -478,521 -522,882l2610 -6z"/>
   <g style="clip-path:url(#id0)">
    <g>
     <path id="1" class="fil3" d="M12210 2362l2689 -6 117 -544 -387 1 309 -1774 -854 2 -1748 1724 -126 597zm1713 -1494l-165 947 -739 1 904 -948z"/>
    </g>
   </g>
   <path class="fil4" d="M13469 3145l130 -749 -1439 4c185,-115 440,-235 690,-376 449,-252 906,-477 1001,-1023 126,-722 -429,-1002 -1071,-1001 -805,2 -1368,373 -1537,1284l822 -2c48,-299 202,-594 554,-595 184,-1 352,113 317,312 -91,515 -940,728 -1555,1270 -290,256 -478,521 -522,882l2610 -6z"/>
   <path class="fil5" style="mask:url(#id1)" d="M13234 1682c56,0 111,3 165,8 -165,124 -358,227 -548,334 -251,141 -506,260 -691,375l1439 -3 -130 748 -1830 4c70,-819 757,-1464 1595,-1466z"/>
   <path class="fil6 str0" d="M10615 4284l282 -977 426 -1c254,-1 340,128 282,329 -60,210 -213,343 -467,344l-146 0 -87 304 -290 1zm563 -533l0 0c68,0 126,-30 150,-114 27,-91 -64,-103 -125,-103l-83 0 -62 217 120 0z"/>
   <path class="fil6 str1" d="M11894 3940l-98 341 -290 1 282 -977 418 -1c295,-1 366,87 312,277 -33,113 -106,208 -218,239 82,38 132,62 75,259 -36,128 -27,201 -27,201l-294 0c-1,-21 9,-84 34,-170 38,-128 29,-170 -106,-170l-88 0zm62 -214l0 0 114 0c90,0 145,-25 164,-93 20,-69 -20,-101 -87,-101l-135 0 -56 194z"/>
   <path class="fil6 str2" d="M13455 3810c-96,332 -352,520 -614,520 -278,1 -409,-189 -313,-521 88,-307 334,-507 609,-507 316,-1 393,250 318,508zm-638 1l0 0c-36,125 -46,281 93,281 125,-1 208,-120 255,-282 38,-133 30,-274 -99,-269 -132,0 -213,146 -249,270z"/>
   <path class="fil6 str3" d="M6475 4309c-10,0 -19,-2 -27,-6 287,-363 413,-951 519,-1557 140,-799 373,-1640 998,-1974l732 -2c35,0 62,28 60,63l-89 2078c-1,35 11,38 28,8l1174 -2097c17,-30 59,-55 94,-55l1154 -2c35,0 55,27 45,60l-1032 3416c-10,33 -46,60 -81,60l-826 2c-35,0 -55,-27 -45,-60l291 -960c10,-33 27,-87 38,-120l141 -431c11,-33 30,-86 42,-118l198 -521c12,-33 20,-59 18,-59 -3,0 -18,24 -35,55l-1210 2160c-17,31 -59,55 -94,56l-611 1c-35,0 -62,-28 -60,-63l89 -2142c2,-35 1,-63 -2,-63 -2,0 -10,28 -17,62l-83 397c-7,34 -21,89 -29,122l-113 429c-9,33 -24,88 -34,121l-326 1078c-10,33 -46,60 -81,60l-826 2zm-4125 -2499c22,-123 -17,-196 -78,-240 -66,-44 -153,-64 -256,-64 -234,1 -361,75 -397,203 -160,530 1800,197 1408,1484 -246,820 -989,1219 -1879,1221 -853,2 -1248,-542 -1077,-1181l1015 -2c-14,128 18,221 91,280 68,59 171,88 275,88 265,-1 467,-95 517,-262 161,-535 -1809,-163 -1399,-1513 227,-752 932,-1131 1740,-1133 898,-2 1156,498 1046,1117l-1006 2zm601 2507c-34,0 -55,-27 -44,-60l1031 -3416c10,-33 47,-61 81,-61l935 -2c34,0 54,27 44,60l-781 2591c-10,33 11,60 45,60l950 -2c35,0 55,27 45,60l-215 705c-10,33 -46,60 -81,61l-2010 4zm3171 -2906l-833 2759c-23,78 24,142 105,142l474 -1c558,-212 731,-956 868,-1733 110,-630 271,-1284 613,-1725l20 -65 -612 5c-322,3 -499,115 -635,618z"/>
   <path class="fil6" d="M13633 3571l0 -216 -82 0 0 -38 207 0 0 38 -83 0 0 216 -42 0zm153 0l0 -254 62 0 64 203 62 -203 61 0 0 254 -39 0 0 -213 -65 213 -38 0 -68 -216 0 216 -39 0z"/>
  </g>
 </g>
</svg>
