<svg xmlns="http://www.w3.org/2000/svg" width="40" height="40" viewBox="0 0 40 40">
  <g id="youtube" transform="translate(143 -145)">
    <path id="Path_7" data-name="Path 7" d="M1.474,311.2H-11.572a3.358,3.358,0,0,0-2.445.983A3.358,3.358,0,0,0-15,314.628v7.113a3.358,3.358,0,0,0,.983,2.445,3.358,3.358,0,0,0,2.445.983H1.474A3.358,3.358,0,0,0,4.9,321.742v-7.113A3.358,3.358,0,0,0,1.474,311.2ZM-7.7,322.014v-7.658l6.515,3.833Z" transform="translate(-117.999 -153.199)" fill="#fff"/>
    <g id="Ellipse_3" data-name="Ellipse 3" transform="translate(-143 145)" fill="none" stroke="#fff" stroke-width="1">
      <circle cx="20" cy="20" r="20" stroke="none"/>
      <circle cx="20" cy="20" r="19.5" fill="none"/>
    </g>
  </g>
</svg>
